<?xml version="1.0" encoding="utf-8" standalone="no"?>
<!DOCTYPE svg PUBLIC "-//W3C//DTD SVG 1.1//EN"
  "http://www.w3.org/Graphics/SVG/1.1/DTD/svg11.dtd">
<svg xmlns:xlink="http://www.w3.org/1999/xlink" width="432pt" height="216pt" viewBox="0 0 432 216" xmlns="http://www.w3.org/2000/svg" version="1.1">
 <metadata>
  <rdf:RDF xmlns:dc="http://purl.org/dc/elements/1.1/" xmlns:cc="http://creativecommons.org/ns#" xmlns:rdf="http://www.w3.org/1999/02/22-rdf-syntax-ns#">
   <cc:Work>
    <dc:type rdf:resource="http://purl.org/dc/dcmitype/StillImage"/>
    <dc:date>2026-06-25T17:22:27.990320</dc:date>
    <dc:format>image/svg+xml</dc:format>
    <dc:creator>
     <cc:Agent>
      <dc:title>Matplotlib v3.10.9, https://matplotlib.org/</dc:title>
     </cc:Agent>
    </dc:creator>
   </cc:Work>
  </rdf:RDF>
 </metadata>
 <defs>
  <style type="text/css">*{stroke-linejoin: round; stroke-linecap: butt}</style>
 </defs>
 <g id="figure_1">
  <g id="patch_1">
   <path d="M 0 216 
L 432 216 
L 432 0 
L 0 0 
z
" style="fill: #ffffff"/>
  </g>
  <g id="axes_1">
   <g id="patch_2">
    <path d="M 38.27 174.04 
L 350.566 174.04 
L 350.566 21.72 
L 38.27 21.72 
z
" style="fill: #ffffff"/>
   </g>
   <g id="matplotlib.axis_1">
    <g id="xtick_1">
     <g id="line2d_1">
      <path d="M 72.27263 174.04 
L 72.27263 21.72 
" clip-path="url(#pee14387d4f)" style="fill: none; stroke: #b0b0b0; stroke-opacity: 0.3; stroke-width: 0.8; stroke-linecap: square"/>
     </g>
     <g id="line2d_2">
      <defs>
       <path id="ma3ddfdceb4" d="M 0 0 
L 0 3.5 
" style="stroke: #000000; stroke-width: 0.8"/>
      </defs>
      <g>
       <use xlink:href="#ma3ddfdceb4" x="72.27263" y="174.04" style="stroke: #000000; stroke-width: 0.8"/>
      </g>
     </g>
     <g id="text_1">
      <!-- 2010 -->
      <g transform="translate(59.54763 188.638438) scale(0.1 -0.1)">
       <defs>
        <path id="DejaVuSans-32" d="M 1228 531 
L 3431 531 
L 3431 0 
L 469 0 
L 469 531 
Q 828 903 1448 1529 
Q 2069 2156 2228 2338 
Q 2531 2678 2651 2914 
Q 2772 3150 2772 3378 
Q 2772 3750 2511 3984 
Q 2250 4219 1831 4219 
Q 1534 4219 1204 4116 
Q 875 4013 500 3803 
L 500 4441 
Q 881 4594 1212 4672 
Q 1544 4750 1819 4750 
Q 2544 4750 2975 4387 
Q 3406 4025 3406 3419 
Q 3406 3131 3298 2873 
Q 3191 2616 2906 2266 
Q 2828 2175 2409 1742 
Q 1991 1309 1228 531 
z
" transform="scale(0.015625)"/>
        <path id="DejaVuSans-30" d="M 2034 4250 
Q 1547 4250 1301 3770 
Q 1056 3291 1056 2328 
Q 1056 1369 1301 889 
Q 1547 409 2034 409 
Q 2525 409 2770 889 
Q 3016 1369 3016 2328 
Q 3016 3291 2770 3770 
Q 2525 4250 2034 4250 
z
M 2034 4750 
Q 2819 4750 3233 4129 
Q 3647 3509 3647 2328 
Q 3647 1150 3233 529 
Q 2819 -91 2034 -91 
Q 1250 -91 836 529 
Q 422 1150 422 2328 
Q 422 3509 836 4129 
Q 1250 4750 2034 4750 
z
" transform="scale(0.015625)"/>
        <path id="DejaVuSans-31" d="M 794 531 
L 1825 531 
L 1825 4091 
L 703 3866 
L 703 4441 
L 1819 4666 
L 2450 4666 
L 2450 531 
L 3481 531 
L 3481 0 
L 794 0 
L 794 531 
z
" transform="scale(0.015625)"/>
       </defs>
       <use xlink:href="#DejaVuSans-32"/>
       <use xlink:href="#DejaVuSans-30" transform="translate(63.623047 0)"/>
       <use xlink:href="#DejaVuSans-31" transform="translate(127.246094 0)"/>
       <use xlink:href="#DejaVuSans-30" transform="translate(190.869141 0)"/>
      </g>
     </g>
    </g>
    <g id="xtick_2">
     <g id="line2d_3">
      <path d="M 138.297154 174.04 
L 138.297154 21.72 
" clip-path="url(#pee14387d4f)" style="fill: none; stroke: #b0b0b0; stroke-opacity: 0.3; stroke-width: 0.8; stroke-linecap: square"/>
     </g>
     <g id="line2d_4">
      <g>
       <use xlink:href="#ma3ddfdceb4" x="138.297154" y="174.04" style="stroke: #000000; stroke-width: 0.8"/>
      </g>
     </g>
     <g id="text_2">
      <!-- 2020 -->
      <g transform="translate(125.572154 188.638438) scale(0.1 -0.1)">
       <use xlink:href="#DejaVuSans-32"/>
       <use xlink:href="#DejaVuSans-30" transform="translate(63.623047 0)"/>
       <use xlink:href="#DejaVuSans-32" transform="translate(127.246094 0)"/>
       <use xlink:href="#DejaVuSans-30" transform="translate(190.869141 0)"/>
      </g>
     </g>
    </g>
    <g id="xtick_3">
     <g id="line2d_5">
      <path d="M 204.321679 174.04 
L 204.321679 21.72 
" clip-path="url(#pee14387d4f)" style="fill: none; stroke: #b0b0b0; stroke-opacity: 0.3; stroke-width: 0.8; stroke-linecap: square"/>
     </g>
     <g id="line2d_6">
      <g>
       <use xlink:href="#ma3ddfdceb4" x="204.321679" y="174.04" style="stroke: #000000; stroke-width: 0.8"/>
      </g>
     </g>
     <g id="text_3">
      <!-- 2030 -->
      <g transform="translate(191.596679 188.638438) scale(0.1 -0.1)">
       <defs>
        <path id="DejaVuSans-33" d="M 2597 2516 
Q 3050 2419 3304 2112 
Q 3559 1806 3559 1356 
Q 3559 666 3084 287 
Q 2609 -91 1734 -91 
Q 1441 -91 1130 -33 
Q 819 25 488 141 
L 488 750 
Q 750 597 1062 519 
Q 1375 441 1716 441 
Q 2309 441 2620 675 
Q 2931 909 2931 1356 
Q 2931 1769 2642 2001 
Q 2353 2234 1838 2234 
L 1294 2234 
L 1294 2753 
L 1863 2753 
Q 2328 2753 2575 2939 
Q 2822 3125 2822 3475 
Q 2822 3834 2567 4026 
Q 2313 4219 1838 4219 
Q 1578 4219 1281 4162 
Q 984 4106 628 3988 
L 628 4550 
Q 988 4650 1302 4700 
Q 1616 4750 1894 4750 
Q 2613 4750 3031 4423 
Q 3450 4097 3450 3541 
Q 3450 3153 3228 2886 
Q 3006 2619 2597 2516 
z
" transform="scale(0.015625)"/>
       </defs>
       <use xlink:href="#DejaVuSans-32"/>
       <use xlink:href="#DejaVuSans-30" transform="translate(63.623047 0)"/>
       <use xlink:href="#DejaVuSans-33" transform="translate(127.246094 0)"/>
       <use xlink:href="#DejaVuSans-30" transform="translate(190.869141 0)"/>
      </g>
     </g>
    </g>
    <g id="xtick_4">
     <g id="line2d_7">
      <path d="M 270.346203 174.04 
L 270.346203 21.72 
" clip-path="url(#pee14387d4f)" style="fill: none; stroke: #b0b0b0; stroke-opacity: 0.3; stroke-width: 0.8; stroke-linecap: square"/>
     </g>
     <g id="line2d_8">
      <g>
       <use xlink:href="#ma3ddfdceb4" x="270.346203" y="174.04" style="stroke: #000000; stroke-width: 0.8"/>
      </g>
     </g>
     <g id="text_4">
      <!-- 2040 -->
      <g transform="translate(257.621203 188.638438) scale(0.1 -0.1)">
       <defs>
        <path id="DejaVuSans-34" d="M 2419 4116 
L 825 1625 
L 2419 1625 
L 2419 4116 
z
M 2253 4666 
L 3047 4666 
L 3047 1625 
L 3713 1625 
L 3713 1100 
L 3047 1100 
L 3047 0 
L 2419 0 
L 2419 1100 
L 313 1100 
L 313 1709 
L 2253 4666 
z
" transform="scale(0.015625)"/>
       </defs>
       <use xlink:href="#DejaVuSans-32"/>
       <use xlink:href="#DejaVuSans-30" transform="translate(63.623047 0)"/>
       <use xlink:href="#DejaVuSans-34" transform="translate(127.246094 0)"/>
       <use xlink:href="#DejaVuSans-30" transform="translate(190.869141 0)"/>
      </g>
     </g>
    </g>
    <g id="xtick_5">
     <g id="line2d_9">
      <path d="M 336.370727 174.04 
L 336.370727 21.72 
" clip-path="url(#pee14387d4f)" style="fill: none; stroke: #b0b0b0; stroke-opacity: 0.3; stroke-width: 0.8; stroke-linecap: square"/>
     </g>
     <g id="line2d_10">
      <g>
       <use xlink:href="#ma3ddfdceb4" x="336.370727" y="174.04" style="stroke: #000000; stroke-width: 0.8"/>
      </g>
     </g>
     <g id="text_5">
      <!-- 2050 -->
      <g transform="translate(323.645727 188.638438) scale(0.1 -0.1)">
       <defs>
        <path id="DejaVuSans-35" d="M 691 4666 
L 3169 4666 
L 3169 4134 
L 1269 4134 
L 1269 2991 
Q 1406 3038 1543 3061 
Q 1681 3084 1819 3084 
Q 2600 3084 3056 2656 
Q 3513 2228 3513 1497 
Q 3513 744 3044 326 
Q 2575 -91 1722 -91 
Q 1428 -91 1123 -41 
Q 819 9 494 109 
L 494 744 
Q 775 591 1075 516 
Q 1375 441 1709 441 
Q 2250 441 2565 725 
Q 2881 1009 2881 1497 
Q 2881 1984 2565 2268 
Q 2250 2553 1709 2553 
Q 1456 2553 1204 2497 
Q 953 2441 691 2322 
L 691 4666 
z
" transform="scale(0.015625)"/>
       </defs>
       <use xlink:href="#DejaVuSans-32"/>
       <use xlink:href="#DejaVuSans-30" transform="translate(63.623047 0)"/>
       <use xlink:href="#DejaVuSans-35" transform="translate(127.246094 0)"/>
       <use xlink:href="#DejaVuSans-30" transform="translate(190.869141 0)"/>
      </g>
     </g>
    </g>
    <g id="text_6">
     <!-- Year -->
     <g transform="translate(183.8305 202.316563) scale(0.1 -0.1)">
      <defs>
       <path id="DejaVuSans-59" d="M -13 4666 
L 666 4666 
L 1959 2747 
L 3244 4666 
L 3922 4666 
L 2272 2222 
L 2272 0 
L 1638 0 
L 1638 2222 
L -13 4666 
z
" transform="scale(0.015625)"/>
       <path id="DejaVuSans-65" d="M 3597 1894 
L 3597 1613 
L 953 1613 
Q 991 1019 1311 708 
Q 1631 397 2203 397 
Q 2534 397 2845 478 
Q 3156 559 3463 722 
L 3463 178 
Q 3153 47 2828 -22 
Q 2503 -91 2169 -91 
Q 1331 -91 842 396 
Q 353 884 353 1716 
Q 353 2575 817 3079 
Q 1281 3584 2069 3584 
Q 2775 3584 3186 3129 
Q 3597 2675 3597 1894 
z
M 3022 2063 
Q 3016 2534 2758 2815 
Q 2500 3097 2075 3097 
Q 1594 3097 1305 2825 
Q 1016 2553 972 2059 
L 3022 2063 
z
" transform="scale(0.015625)"/>
       <path id="DejaVuSans-61" d="M 2194 1759 
Q 1497 1759 1228 1600 
Q 959 1441 959 1056 
Q 959 750 1161 570 
Q 1363 391 1709 391 
Q 2188 391 2477 730 
Q 2766 1069 2766 1631 
L 2766 1759 
L 2194 1759 
z
M 3341 1997 
L 3341 0 
L 2766 0 
L 2766 531 
Q 2569 213 2275 61 
Q 1981 -91 1556 -91 
Q 1019 -91 701 211 
Q 384 513 384 1019 
Q 384 1609 779 1909 
Q 1175 2209 1959 2209 
L 2766 2209 
L 2766 2266 
Q 2766 2663 2505 2880 
Q 2244 3097 1772 3097 
Q 1472 3097 1187 3025 
Q 903 2953 641 2809 
L 641 3341 
Q 956 3463 1253 3523 
Q 1550 3584 1831 3584 
Q 2591 3584 2966 3190 
Q 3341 2797 3341 1997 
z
" transform="scale(0.015625)"/>
       <path id="DejaVuSans-72" d="M 2631 2963 
Q 2534 3019 2420 3045 
Q 2306 3072 2169 3072 
Q 1681 3072 1420 2755 
Q 1159 2438 1159 1844 
L 1159 0 
L 581 0 
L 581 3500 
L 1159 3500 
L 1159 2956 
Q 1341 3275 1631 3429 
Q 1922 3584 2338 3584 
Q 2397 3584 2469 3576 
Q 2541 3569 2628 3553 
L 2631 2963 
z
" transform="scale(0.015625)"/>
      </defs>
      <use xlink:href="#DejaVuSans-59"/>
      <use xlink:href="#DejaVuSans-65" transform="translate(47.833984 0)"/>
      <use xlink:href="#DejaVuSans-61" transform="translate(109.357422 0)"/>
      <use xlink:href="#DejaVuSans-72" transform="translate(170.636719 0)"/>
     </g>
    </g>
   </g>
   <g id="matplotlib.axis_2">
    <g id="ytick_1">
     <g id="line2d_11">
      <path d="M 38.27 167.116364 
L 350.566 167.116364 
" clip-path="url(#pee14387d4f)" style="fill: none; stroke: #b0b0b0; stroke-opacity: 0.3; stroke-width: 0.8; stroke-linecap: square"/>
     </g>
     <g id="line2d_12">
      <defs>
       <path id="m58ef5ff834" d="M 0 0 
L -3.5 0 
" style="stroke: #000000; stroke-width: 0.8"/>
      </defs>
      <g>
       <use xlink:href="#m58ef5ff834" x="38.27" y="167.116364" style="stroke: #000000; stroke-width: 0.8"/>
      </g>
     </g>
     <g id="text_7">
      <!-- 0 -->
      <g style="fill: #f49d1e" transform="translate(24.9075 170.915582) scale(0.1 -0.1)">
       <use xlink:href="#DejaVuSans-30"/>
      </g>
     </g>
    </g>
    <g id="ytick_2">
     <g id="line2d_13">
      <path d="M 38.27 134.226686 
L 350.566 134.226686 
" clip-path="url(#pee14387d4f)" style="fill: none; stroke: #b0b0b0; stroke-opacity: 0.3; stroke-width: 0.8; stroke-linecap: square"/>
     </g>
     <g id="line2d_14">
      <g>
       <use xlink:href="#m58ef5ff834" x="38.27" y="134.226686" style="stroke: #000000; stroke-width: 0.8"/>
      </g>
     </g>
     <g id="text_8">
      <!-- 2 -->
      <g style="fill: #f49d1e" transform="translate(24.9075 138.025904) scale(0.1 -0.1)">
       <use xlink:href="#DejaVuSans-32"/>
      </g>
     </g>
    </g>
    <g id="ytick_3">
     <g id="line2d_15">
      <path d="M 38.27 101.337007 
L 350.566 101.337007 
" clip-path="url(#pee14387d4f)" style="fill: none; stroke: #b0b0b0; stroke-opacity: 0.3; stroke-width: 0.8; stroke-linecap: square"/>
     </g>
     <g id="line2d_16">
      <g>
       <use xlink:href="#m58ef5ff834" x="38.27" y="101.337007" style="stroke: #000000; stroke-width: 0.8"/>
      </g>
     </g>
     <g id="text_9">
      <!-- 4 -->
      <g style="fill: #f49d1e" transform="translate(24.9075 105.136226) scale(0.1 -0.1)">
       <use xlink:href="#DejaVuSans-34"/>
      </g>
     </g>
    </g>
    <g id="ytick_4">
     <g id="line2d_17">
      <path d="M 38.27 68.447329 
L 350.566 68.447329 
" clip-path="url(#pee14387d4f)" style="fill: none; stroke: #b0b0b0; stroke-opacity: 0.3; stroke-width: 0.8; stroke-linecap: square"/>
     </g>
     <g id="line2d_18">
      <g>
       <use xlink:href="#m58ef5ff834" x="38.27" y="68.447329" style="stroke: #000000; stroke-width: 0.8"/>
      </g>
     </g>
     <g id="text_10">
      <!-- 6 -->
      <g style="fill: #f49d1e" transform="translate(24.9075 72.246548) scale(0.1 -0.1)">
       <defs>
        <path id="DejaVuSans-36" d="M 2113 2584 
Q 1688 2584 1439 2293 
Q 1191 2003 1191 1497 
Q 1191 994 1439 701 
Q 1688 409 2113 409 
Q 2538 409 2786 701 
Q 3034 994 3034 1497 
Q 3034 2003 2786 2293 
Q 2538 2584 2113 2584 
z
M 3366 4563 
L 3366 3988 
Q 3128 4100 2886 4159 
Q 2644 4219 2406 4219 
Q 1781 4219 1451 3797 
Q 1122 3375 1075 2522 
Q 1259 2794 1537 2939 
Q 1816 3084 2150 3084 
Q 2853 3084 3261 2657 
Q 3669 2231 3669 1497 
Q 3669 778 3244 343 
Q 2819 -91 2113 -91 
Q 1303 -91 875 529 
Q 447 1150 447 2328 
Q 447 3434 972 4092 
Q 1497 4750 2381 4750 
Q 2619 4750 2861 4703 
Q 3103 4656 3366 4563 
z
" transform="scale(0.015625)"/>
       </defs>
       <use xlink:href="#DejaVuSans-36"/>
      </g>
     </g>
    </g>
    <g id="ytick_5">
     <g id="line2d_19">
      <path d="M 38.27 35.557651 
L 350.566 35.557651 
" clip-path="url(#pee14387d4f)" style="fill: none; stroke: #b0b0b0; stroke-opacity: 0.3; stroke-width: 0.8; stroke-linecap: square"/>
     </g>
     <g id="line2d_20">
      <g>
       <use xlink:href="#m58ef5ff834" x="38.27" y="35.557651" style="stroke: #000000; stroke-width: 0.8"/>
      </g>
     </g>
     <g id="text_11">
      <!-- 8 -->
      <g style="fill: #f49d1e" transform="translate(24.9075 39.35687) scale(0.1 -0.1)">
       <defs>
        <path id="DejaVuSans-38" d="M 2034 2216 
Q 1584 2216 1326 1975 
Q 1069 1734 1069 1313 
Q 1069 891 1326 650 
Q 1584 409 2034 409 
Q 2484 409 2743 651 
Q 3003 894 3003 1313 
Q 3003 1734 2745 1975 
Q 2488 2216 2034 2216 
z
M 1403 2484 
Q 997 2584 770 2862 
Q 544 3141 544 3541 
Q 544 4100 942 4425 
Q 1341 4750 2034 4750 
Q 2731 4750 3128 4425 
Q 3525 4100 3525 3541 
Q 3525 3141 3298 2862 
Q 3072 2584 2669 2484 
Q 3125 2378 3379 2068 
Q 3634 1759 3634 1313 
Q 3634 634 3220 271 
Q 2806 -91 2034 -91 
Q 1263 -91 848 271 
Q 434 634 434 1313 
Q 434 1759 690 2068 
Q 947 2378 1403 2484 
z
M 1172 3481 
Q 1172 3119 1398 2916 
Q 1625 2713 2034 2713 
Q 2441 2713 2670 2916 
Q 2900 3119 2900 3481 
Q 2900 3844 2670 4047 
Q 2441 4250 2034 4250 
Q 1625 4250 1398 4047 
Q 1172 3844 1172 3481 
z
" transform="scale(0.015625)"/>
       </defs>
       <use xlink:href="#DejaVuSans-38"/>
      </g>
     </g>
    </g>
    <g id="text_12">
     <!-- Mining inflow [kg Ga] -->
     <g style="fill: #f49d1e" transform="translate(18.827813 151.015938) rotate(-90) scale(0.1 -0.1)">
      <defs>
       <path id="DejaVuSans-4d" d="M 628 4666 
L 1569 4666 
L 2759 1491 
L 3956 4666 
L 4897 4666 
L 4897 0 
L 4281 0 
L 4281 4097 
L 3078 897 
L 2444 897 
L 1241 4097 
L 1241 0 
L 628 0 
L 628 4666 
z
" transform="scale(0.015625)"/>
       <path id="DejaVuSans-69" d="M 603 3500 
L 1178 3500 
L 1178 0 
L 603 0 
L 603 3500 
z
M 603 4863 
L 1178 4863 
L 1178 4134 
L 603 4134 
L 603 4863 
z
" transform="scale(0.015625)"/>
       <path id="DejaVuSans-6e" d="M 3513 2113 
L 3513 0 
L 2938 0 
L 2938 2094 
Q 2938 2591 2744 2837 
Q 2550 3084 2163 3084 
Q 1697 3084 1428 2787 
Q 1159 2491 1159 1978 
L 1159 0 
L 581 0 
L 581 3500 
L 1159 3500 
L 1159 2956 
Q 1366 3272 1645 3428 
Q 1925 3584 2291 3584 
Q 2894 3584 3203 3211 
Q 3513 2838 3513 2113 
z
" transform="scale(0.015625)"/>
       <path id="DejaVuSans-67" d="M 2906 1791 
Q 2906 2416 2648 2759 
Q 2391 3103 1925 3103 
Q 1463 3103 1205 2759 
Q 947 2416 947 1791 
Q 947 1169 1205 825 
Q 1463 481 1925 481 
Q 2391 481 2648 825 
Q 2906 1169 2906 1791 
z
M 3481 434 
Q 3481 -459 3084 -895 
Q 2688 -1331 1869 -1331 
Q 1566 -1331 1297 -1286 
Q 1028 -1241 775 -1147 
L 775 -588 
Q 1028 -725 1275 -790 
Q 1522 -856 1778 -856 
Q 2344 -856 2625 -561 
Q 2906 -266 2906 331 
L 2906 616 
Q 2728 306 2450 153 
Q 2172 0 1784 0 
Q 1141 0 747 490 
Q 353 981 353 1791 
Q 353 2603 747 3093 
Q 1141 3584 1784 3584 
Q 2172 3584 2450 3431 
Q 2728 3278 2906 2969 
L 2906 3500 
L 3481 3500 
L 3481 434 
z
" transform="scale(0.015625)"/>
       <path id="DejaVuSans-20" transform="scale(0.015625)"/>
       <path id="DejaVuSans-66" d="M 2375 4863 
L 2375 4384 
L 1825 4384 
Q 1516 4384 1395 4259 
Q 1275 4134 1275 3809 
L 1275 3500 
L 2222 3500 
L 2222 3053 
L 1275 3053 
L 1275 0 
L 697 0 
L 697 3053 
L 147 3053 
L 147 3500 
L 697 3500 
L 697 3744 
Q 697 4328 969 4595 
Q 1241 4863 1831 4863 
L 2375 4863 
z
" transform="scale(0.015625)"/>
       <path id="DejaVuSans-6c" d="M 603 4863 
L 1178 4863 
L 1178 0 
L 603 0 
L 603 4863 
z
" transform="scale(0.015625)"/>
       <path id="DejaVuSans-6f" d="M 1959 3097 
Q 1497 3097 1228 2736 
Q 959 2375 959 1747 
Q 959 1119 1226 758 
Q 1494 397 1959 397 
Q 2419 397 2687 759 
Q 2956 1122 2956 1747 
Q 2956 2369 2687 2733 
Q 2419 3097 1959 3097 
z
M 1959 3584 
Q 2709 3584 3137 3096 
Q 3566 2609 3566 1747 
Q 3566 888 3137 398 
Q 2709 -91 1959 -91 
Q 1206 -91 779 398 
Q 353 888 353 1747 
Q 353 2609 779 3096 
Q 1206 3584 1959 3584 
z
" transform="scale(0.015625)"/>
       <path id="DejaVuSans-77" d="M 269 3500 
L 844 3500 
L 1563 769 
L 2278 3500 
L 2956 3500 
L 3675 769 
L 4391 3500 
L 4966 3500 
L 4050 0 
L 3372 0 
L 2619 2869 
L 1863 0 
L 1184 0 
L 269 3500 
z
" transform="scale(0.015625)"/>
       <path id="DejaVuSans-5b" d="M 550 4863 
L 1875 4863 
L 1875 4416 
L 1125 4416 
L 1125 -397 
L 1875 -397 
L 1875 -844 
L 550 -844 
L 550 4863 
z
" transform="scale(0.015625)"/>
       <path id="DejaVuSans-6b" d="M 581 4863 
L 1159 4863 
L 1159 1991 
L 2875 3500 
L 3609 3500 
L 1753 1863 
L 3688 0 
L 2938 0 
L 1159 1709 
L 1159 0 
L 581 0 
L 581 4863 
z
" transform="scale(0.015625)"/>
       <path id="DejaVuSans-47" d="M 3809 666 
L 3809 1919 
L 2778 1919 
L 2778 2438 
L 4434 2438 
L 4434 434 
Q 4069 175 3628 42 
Q 3188 -91 2688 -91 
Q 1594 -91 976 548 
Q 359 1188 359 2328 
Q 359 3472 976 4111 
Q 1594 4750 2688 4750 
Q 3144 4750 3555 4637 
Q 3966 4525 4313 4306 
L 4313 3634 
Q 3963 3931 3569 4081 
Q 3175 4231 2741 4231 
Q 1884 4231 1454 3753 
Q 1025 3275 1025 2328 
Q 1025 1384 1454 906 
Q 1884 428 2741 428 
Q 3075 428 3337 486 
Q 3600 544 3809 666 
z
" transform="scale(0.015625)"/>
       <path id="DejaVuSans-5d" d="M 1947 4863 
L 1947 -844 
L 622 -844 
L 622 -397 
L 1369 -397 
L 1369 4416 
L 622 4416 
L 622 4863 
L 1947 4863 
z
" transform="scale(0.015625)"/>
      </defs>
      <use xlink:href="#DejaVuSans-4d"/>
      <use xlink:href="#DejaVuSans-69" transform="translate(86.279297 0)"/>
      <use xlink:href="#DejaVuSans-6e" transform="translate(114.0625 0)"/>
      <use xlink:href="#DejaVuSans-69" transform="translate(177.441406 0)"/>
      <use xlink:href="#DejaVuSans-6e" transform="translate(205.224609 0)"/>
      <use xlink:href="#DejaVuSans-67" transform="translate(268.603516 0)"/>
      <use xlink:href="#DejaVuSans-20" transform="translate(332.080078 0)"/>
      <use xlink:href="#DejaVuSans-69" transform="translate(363.867188 0)"/>
      <use xlink:href="#DejaVuSans-6e" transform="translate(391.650391 0)"/>
      <use xlink:href="#DejaVuSans-66" transform="translate(455.029297 0)"/>
      <use xlink:href="#DejaVuSans-6c" transform="translate(490.234375 0)"/>
      <use xlink:href="#DejaVuSans-6f" transform="translate(518.017578 0)"/>
      <use xlink:href="#DejaVuSans-77" transform="translate(579.199219 0)"/>
      <use xlink:href="#DejaVuSans-20" transform="translate(660.986328 0)"/>
      <use xlink:href="#DejaVuSans-5b" transform="translate(692.773438 0)"/>
      <use xlink:href="#DejaVuSans-6b" transform="translate(731.787109 0)"/>
      <use xlink:href="#DejaVuSans-67" transform="translate(789.697266 0)"/>
      <use xlink:href="#DejaVuSans-20" transform="translate(853.173828 0)"/>
      <use xlink:href="#DejaVuSans-47" transform="translate(884.960938 0)"/>
      <use xlink:href="#DejaVuSans-61" transform="translate(962.451172 0)"/>
      <use xlink:href="#DejaVuSans-5d" transform="translate(1023.730469 0)"/>
     </g>
    </g>
    <g id="text_13">
     <!-- 1e6 -->
     <g style="fill: #f49d1e" transform="translate(38.27 18.72) scale(0.1 -0.1)">
      <use xlink:href="#DejaVuSans-31"/>
      <use xlink:href="#DejaVuSans-65" transform="translate(63.623047 0)"/>
      <use xlink:href="#DejaVuSans-36" transform="translate(125.146484 0)"/>
     </g>
    </g>
   </g>
   <g id="line2d_21">
    <path d="M 52.465273 167.116364 
L 59.067725 167.116364 
L 65.670178 167.116364 
L 72.27263 167.116364 
L 78.875082 167.116364 
L 85.477535 167.116364 
L 92.079987 167.116364 
L 98.68244 167.116364 
L 105.284892 167.116364 
L 111.887345 167.116364 
L 118.489797 167.116364 
L 125.092249 167.116364 
L 131.694702 167.116364 
L 138.297154 167.116364 
L 144.899607 167.116364 
L 151.502059 167.116364 
L 158.104512 167.116364 
L 164.706964 167.116364 
L 171.309416 167.116364 
L 177.911869 167.116364 
L 184.514321 167.116364 
L 191.116774 167.116364 
L 197.719226 167.116364 
L 204.321679 167.116364 
L 210.924131 167.116364 
L 217.526584 167.116364 
L 224.129036 167.116364 
L 230.731488 167.116364 
L 237.333941 167.116364 
L 243.936393 167.116364 
L 250.538846 167.116364 
L 257.141298 167.116364 
L 263.743751 167.116364 
L 270.346203 167.116364 
L 276.948655 167.116364 
L 283.551108 167.116364 
L 290.15356 167.116364 
L 296.756013 167.116364 
L 303.358465 167.116364 
L 309.960918 167.116364 
L 316.56337 167.116364 
L 323.165822 167.116364 
L 329.768275 167.116364 
L 336.370727 167.116364 
" clip-path="url(#pee14387d4f)" style="fill: none; stroke: #f49d1e; stroke-width: 2; stroke-linecap: square"/>
   </g>
   <g id="line2d_22">
    <path d="M 52.465273 167.116364 
L 59.067725 167.116364 
L 65.670178 167.116364 
L 72.27263 167.116364 
L 78.875082 167.116364 
L 85.477535 167.116364 
L 92.079987 167.116364 
L 98.68244 167.116364 
L 105.284892 167.116364 
L 111.887345 167.116364 
L 118.489797 167.116364 
L 125.092249 167.116364 
L 131.694702 167.116364 
L 138.297154 167.116364 
L 144.899607 167.116364 
L 151.502059 167.116364 
L 158.104512 167.116364 
L 164.706964 167.116364 
L 171.309416 167.116364 
L 177.911869 166.529763 
L 184.514321 164.79578 
L 191.116774 161.450314 
L 197.719226 157.698466 
L 204.321679 154.656958 
L 210.924131 152.187761 
L 217.526584 149.699979 
L 224.129036 146.753668 
L 230.731488 143.567183 
L 237.333941 140.036245 
L 243.936393 136.117292 
L 250.538846 131.834753 
L 257.141298 127.115353 
L 263.743751 121.957973 
L 270.346203 116.325426 
L 276.948655 110.188671 
L 283.551108 103.525329 
L 290.15356 96.304929 
L 296.756013 88.505859 
L 303.358465 80.105545 
L 309.960918 71.085813 
L 316.56337 61.433581 
L 323.165822 51.140895 
L 329.768275 40.207887 
L 336.370727 28.643636 
" clip-path="url(#pee14387d4f)" style="fill: none; stroke-dasharray: 7.4,3.2; stroke-dashoffset: 0; stroke: #f49d1e; stroke-width: 2"/>
   </g>
   <g id="patch_3">
    <path d="M 38.27 174.04 
L 38.27 21.72 
" style="fill: none; stroke: #000000; stroke-width: 0.8; stroke-linejoin: miter; stroke-linecap: square"/>
   </g>
   <g id="patch_4">
    <path d="M 350.566 174.04 
L 350.566 21.72 
" style="fill: none; stroke: #000000; stroke-width: 0.8; stroke-linejoin: miter; stroke-linecap: square"/>
   </g>
   <g id="patch_5">
    <path d="M 38.27 174.04 
L 350.566 174.04 
" style="fill: none; stroke: #000000; stroke-width: 0.8; stroke-linejoin: miter; stroke-linecap: square"/>
   </g>
   <g id="patch_6">
    <path d="M 38.27 21.72 
L 350.566 21.72 
" style="fill: none; stroke: #000000; stroke-width: 0.8; stroke-linejoin: miter; stroke-linecap: square"/>
   </g>
   <g id="legend_1">
    <g id="patch_7">
     <path d="M 45.27 88.4325 
L 256.635625 88.4325 
Q 258.635625 88.4325 258.635625 86.4325 
L 258.635625 28.72 
Q 258.635625 26.72 256.635625 26.72 
L 45.27 26.72 
Q 43.27 26.72 43.27 28.72 
L 43.27 86.4325 
Q 43.27 88.4325 45.27 88.4325 
z
" style="fill: #ffffff; opacity: 0.8; stroke: #cccccc; stroke-linejoin: miter"/>
    </g>
    <g id="line2d_23">
     <path d="M 47.27 34.818438 
L 57.27 34.818438 
L 67.27 34.818438 
" style="fill: none; stroke: #f49d1e; stroke-width: 2; stroke-linecap: square"/>
    </g>
    <g id="text_14">
     <!-- Mining inflow -->
     <g transform="translate(75.27 38.318438) scale(0.1 -0.1)">
      <use xlink:href="#DejaVuSans-4d"/>
      <use xlink:href="#DejaVuSans-69" transform="translate(86.279297 0)"/>
      <use xlink:href="#DejaVuSans-6e" transform="translate(114.0625 0)"/>
      <use xlink:href="#DejaVuSans-69" transform="translate(177.441406 0)"/>
      <use xlink:href="#DejaVuSans-6e" transform="translate(205.224609 0)"/>
      <use xlink:href="#DejaVuSans-67" transform="translate(268.603516 0)"/>
      <use xlink:href="#DejaVuSans-20" transform="translate(332.080078 0)"/>
      <use xlink:href="#DejaVuSans-69" transform="translate(363.867188 0)"/>
      <use xlink:href="#DejaVuSans-6e" transform="translate(391.650391 0)"/>
      <use xlink:href="#DejaVuSans-66" transform="translate(455.029297 0)"/>
      <use xlink:href="#DejaVuSans-6c" transform="translate(490.234375 0)"/>
      <use xlink:href="#DejaVuSans-6f" transform="translate(518.017578 0)"/>
      <use xlink:href="#DejaVuSans-77" transform="translate(579.199219 0)"/>
     </g>
    </g>
    <g id="line2d_24">
     <path d="M 47.27 49.496563 
L 57.27 49.496563 
L 67.27 49.496563 
" style="fill: none; stroke-dasharray: 7.4,3.2; stroke-dashoffset: 0; stroke: #f49d1e; stroke-width: 2"/>
    </g>
    <g id="text_15">
     <!-- Mining inflow High Supply -->
     <g transform="translate(75.27 52.996563) scale(0.1 -0.1)">
      <defs>
       <path id="DejaVuSans-48" d="M 628 4666 
L 1259 4666 
L 1259 2753 
L 3553 2753 
L 3553 4666 
L 4184 4666 
L 4184 0 
L 3553 0 
L 3553 2222 
L 1259 2222 
L 1259 0 
L 628 0 
L 628 4666 
z
" transform="scale(0.015625)"/>
       <path id="DejaVuSans-68" d="M 3513 2113 
L 3513 0 
L 2938 0 
L 2938 2094 
Q 2938 2591 2744 2837 
Q 2550 3084 2163 3084 
Q 1697 3084 1428 2787 
Q 1159 2491 1159 1978 
L 1159 0 
L 581 0 
L 581 4863 
L 1159 4863 
L 1159 2956 
Q 1366 3272 1645 3428 
Q 1925 3584 2291 3584 
Q 2894 3584 3203 3211 
Q 3513 2838 3513 2113 
z
" transform="scale(0.015625)"/>
       <path id="DejaVuSans-53" d="M 3425 4513 
L 3425 3897 
Q 3066 4069 2747 4153 
Q 2428 4238 2131 4238 
Q 1616 4238 1336 4038 
Q 1056 3838 1056 3469 
Q 1056 3159 1242 3001 
Q 1428 2844 1947 2747 
L 2328 2669 
Q 3034 2534 3370 2195 
Q 3706 1856 3706 1288 
Q 3706 609 3251 259 
Q 2797 -91 1919 -91 
Q 1588 -91 1214 -16 
Q 841 59 441 206 
L 441 856 
Q 825 641 1194 531 
Q 1563 422 1919 422 
Q 2459 422 2753 634 
Q 3047 847 3047 1241 
Q 3047 1584 2836 1778 
Q 2625 1972 2144 2069 
L 1759 2144 
Q 1053 2284 737 2584 
Q 422 2884 422 3419 
Q 422 4038 858 4394 
Q 1294 4750 2059 4750 
Q 2388 4750 2728 4690 
Q 3069 4631 3425 4513 
z
" transform="scale(0.015625)"/>
       <path id="DejaVuSans-75" d="M 544 1381 
L 544 3500 
L 1119 3500 
L 1119 1403 
Q 1119 906 1312 657 
Q 1506 409 1894 409 
Q 2359 409 2629 706 
Q 2900 1003 2900 1516 
L 2900 3500 
L 3475 3500 
L 3475 0 
L 2900 0 
L 2900 538 
Q 2691 219 2414 64 
Q 2138 -91 1772 -91 
Q 1169 -91 856 284 
Q 544 659 544 1381 
z
M 1991 3584 
L 1991 3584 
z
" transform="scale(0.015625)"/>
       <path id="DejaVuSans-70" d="M 1159 525 
L 1159 -1331 
L 581 -1331 
L 581 3500 
L 1159 3500 
L 1159 2969 
Q 1341 3281 1617 3432 
Q 1894 3584 2278 3584 
Q 2916 3584 3314 3078 
Q 3713 2572 3713 1747 
Q 3713 922 3314 415 
Q 2916 -91 2278 -91 
Q 1894 -91 1617 61 
Q 1341 213 1159 525 
z
M 3116 1747 
Q 3116 2381 2855 2742 
Q 2594 3103 2138 3103 
Q 1681 3103 1420 2742 
Q 1159 2381 1159 1747 
Q 1159 1113 1420 752 
Q 1681 391 2138 391 
Q 2594 391 2855 752 
Q 3116 1113 3116 1747 
z
" transform="scale(0.015625)"/>
       <path id="DejaVuSans-79" d="M 2059 -325 
Q 1816 -950 1584 -1140 
Q 1353 -1331 966 -1331 
L 506 -1331 
L 506 -850 
L 844 -850 
Q 1081 -850 1212 -737 
Q 1344 -625 1503 -206 
L 1606 56 
L 191 3500 
L 800 3500 
L 1894 763 
L 2988 3500 
L 3597 3500 
L 2059 -325 
z
" transform="scale(0.015625)"/>
      </defs>
      <use xlink:href="#DejaVuSans-4d"/>
      <use xlink:href="#DejaVuSans-69" transform="translate(86.279297 0)"/>
      <use xlink:href="#DejaVuSans-6e" transform="translate(114.0625 0)"/>
      <use xlink:href="#DejaVuSans-69" transform="translate(177.441406 0)"/>
      <use xlink:href="#DejaVuSans-6e" transform="translate(205.224609 0)"/>
      <use xlink:href="#DejaVuSans-67" transform="translate(268.603516 0)"/>
      <use xlink:href="#DejaVuSans-20" transform="translate(332.080078 0)"/>
      <use xlink:href="#DejaVuSans-69" transform="translate(363.867188 0)"/>
      <use xlink:href="#DejaVuSans-6e" transform="translate(391.650391 0)"/>
      <use xlink:href="#DejaVuSans-66" transform="translate(455.029297 0)"/>
      <use xlink:href="#DejaVuSans-6c" transform="translate(490.234375 0)"/>
      <use xlink:href="#DejaVuSans-6f" transform="translate(518.017578 0)"/>
      <use xlink:href="#DejaVuSans-77" transform="translate(579.199219 0)"/>
      <use xlink:href="#DejaVuSans-20" transform="translate(660.986328 0)"/>
      <use xlink:href="#DejaVuSans-48" transform="translate(692.773438 0)"/>
      <use xlink:href="#DejaVuSans-69" transform="translate(767.96875 0)"/>
      <use xlink:href="#DejaVuSans-67" transform="translate(795.751953 0)"/>
      <use xlink:href="#DejaVuSans-68" transform="translate(859.228516 0)"/>
      <use xlink:href="#DejaVuSans-20" transform="translate(922.607422 0)"/>
      <use xlink:href="#DejaVuSans-53" transform="translate(954.394531 0)"/>
      <use xlink:href="#DejaVuSans-75" transform="translate(1017.871094 0)"/>
      <use xlink:href="#DejaVuSans-70" transform="translate(1081.25 0)"/>
      <use xlink:href="#DejaVuSans-70" transform="translate(1144.726562 0)"/>
      <use xlink:href="#DejaVuSans-6c" transform="translate(1208.203125 0)"/>
      <use xlink:href="#DejaVuSans-79" transform="translate(1235.986328 0)"/>
     </g>
    </g>
    <g id="line2d_25">
     <path d="M 47.27 64.174688 
L 57.27 64.174688 
L 67.27 64.174688 
" style="fill: none; stroke: #1bb89a; stroke-width: 2; stroke-linecap: square"/>
    </g>
    <g id="text_16">
     <!-- Use-phase inflow (mfg) -->
     <g transform="translate(75.27 67.674688) scale(0.1 -0.1)">
      <defs>
       <path id="DejaVuSans-55" d="M 556 4666 
L 1191 4666 
L 1191 1831 
Q 1191 1081 1462 751 
Q 1734 422 2344 422 
Q 2950 422 3222 751 
Q 3494 1081 3494 1831 
L 3494 4666 
L 4128 4666 
L 4128 1753 
Q 4128 841 3676 375 
Q 3225 -91 2344 -91 
Q 1459 -91 1007 375 
Q 556 841 556 1753 
L 556 4666 
z
" transform="scale(0.015625)"/>
       <path id="DejaVuSans-73" d="M 2834 3397 
L 2834 2853 
Q 2591 2978 2328 3040 
Q 2066 3103 1784 3103 
Q 1356 3103 1142 2972 
Q 928 2841 928 2578 
Q 928 2378 1081 2264 
Q 1234 2150 1697 2047 
L 1894 2003 
Q 2506 1872 2764 1633 
Q 3022 1394 3022 966 
Q 3022 478 2636 193 
Q 2250 -91 1575 -91 
Q 1294 -91 989 -36 
Q 684 19 347 128 
L 347 722 
Q 666 556 975 473 
Q 1284 391 1588 391 
Q 1994 391 2212 530 
Q 2431 669 2431 922 
Q 2431 1156 2273 1281 
Q 2116 1406 1581 1522 
L 1381 1569 
Q 847 1681 609 1914 
Q 372 2147 372 2553 
Q 372 3047 722 3315 
Q 1072 3584 1716 3584 
Q 2034 3584 2315 3537 
Q 2597 3491 2834 3397 
z
" transform="scale(0.015625)"/>
       <path id="DejaVuSans-2d" d="M 313 2009 
L 1997 2009 
L 1997 1497 
L 313 1497 
L 313 2009 
z
" transform="scale(0.015625)"/>
       <path id="DejaVuSans-28" d="M 1984 4856 
Q 1566 4138 1362 3434 
Q 1159 2731 1159 2009 
Q 1159 1288 1364 580 
Q 1569 -128 1984 -844 
L 1484 -844 
Q 1016 -109 783 600 
Q 550 1309 550 2009 
Q 550 2706 781 3412 
Q 1013 4119 1484 4856 
L 1984 4856 
z
" transform="scale(0.015625)"/>
       <path id="DejaVuSans-6d" d="M 3328 2828 
Q 3544 3216 3844 3400 
Q 4144 3584 4550 3584 
Q 5097 3584 5394 3201 
Q 5691 2819 5691 2113 
L 5691 0 
L 5113 0 
L 5113 2094 
Q 5113 2597 4934 2840 
Q 4756 3084 4391 3084 
Q 3944 3084 3684 2787 
Q 3425 2491 3425 1978 
L 3425 0 
L 2847 0 
L 2847 2094 
Q 2847 2600 2669 2842 
Q 2491 3084 2119 3084 
Q 1678 3084 1418 2786 
Q 1159 2488 1159 1978 
L 1159 0 
L 581 0 
L 581 3500 
L 1159 3500 
L 1159 2956 
Q 1356 3278 1631 3431 
Q 1906 3584 2284 3584 
Q 2666 3584 2933 3390 
Q 3200 3197 3328 2828 
z
" transform="scale(0.015625)"/>
       <path id="DejaVuSans-29" d="M 513 4856 
L 1013 4856 
Q 1481 4119 1714 3412 
Q 1947 2706 1947 2009 
Q 1947 1309 1714 600 
Q 1481 -109 1013 -844 
L 513 -844 
Q 928 -128 1133 580 
Q 1338 1288 1338 2009 
Q 1338 2731 1133 3434 
Q 928 4138 513 4856 
z
" transform="scale(0.015625)"/>
      </defs>
      <use xlink:href="#DejaVuSans-55"/>
      <use xlink:href="#DejaVuSans-73" transform="translate(73.193359 0)"/>
      <use xlink:href="#DejaVuSans-65" transform="translate(125.292969 0)"/>
      <use xlink:href="#DejaVuSans-2d" transform="translate(186.816406 0)"/>
      <use xlink:href="#DejaVuSans-70" transform="translate(222.900391 0)"/>
      <use xlink:href="#DejaVuSans-68" transform="translate(286.376953 0)"/>
      <use xlink:href="#DejaVuSans-61" transform="translate(349.755859 0)"/>
      <use xlink:href="#DejaVuSans-73" transform="translate(411.035156 0)"/>
      <use xlink:href="#DejaVuSans-65" transform="translate(463.134766 0)"/>
      <use xlink:href="#DejaVuSans-20" transform="translate(524.658203 0)"/>
      <use xlink:href="#DejaVuSans-69" transform="translate(556.445312 0)"/>
      <use xlink:href="#DejaVuSans-6e" transform="translate(584.228516 0)"/>
      <use xlink:href="#DejaVuSans-66" transform="translate(647.607422 0)"/>
      <use xlink:href="#DejaVuSans-6c" transform="translate(682.8125 0)"/>
      <use xlink:href="#DejaVuSans-6f" transform="translate(710.595703 0)"/>
      <use xlink:href="#DejaVuSans-77" transform="translate(771.777344 0)"/>
      <use xlink:href="#DejaVuSans-20" transform="translate(853.564453 0)"/>
      <use xlink:href="#DejaVuSans-28" transform="translate(885.351562 0)"/>
      <use xlink:href="#DejaVuSans-6d" transform="translate(924.365234 0)"/>
      <use xlink:href="#DejaVuSans-66" transform="translate(1021.777344 0)"/>
      <use xlink:href="#DejaVuSans-67" transform="translate(1056.982422 0)"/>
      <use xlink:href="#DejaVuSans-29" transform="translate(1120.458984 0)"/>
     </g>
    </g>
    <g id="line2d_26">
     <path d="M 47.27 78.852813 
L 57.27 78.852813 
L 67.27 78.852813 
" style="fill: none; stroke-dasharray: 7.4,3.2; stroke-dashoffset: 0; stroke: #1bb89a; stroke-width: 2"/>
    </g>
    <g id="text_17">
     <!-- Use-phase inflow (mfg) High Supply -->
     <g transform="translate(75.27 82.352813) scale(0.1 -0.1)">
      <use xlink:href="#DejaVuSans-55"/>
      <use xlink:href="#DejaVuSans-73" transform="translate(73.193359 0)"/>
      <use xlink:href="#DejaVuSans-65" transform="translate(125.292969 0)"/>
      <use xlink:href="#DejaVuSans-2d" transform="translate(186.816406 0)"/>
      <use xlink:href="#DejaVuSans-70" transform="translate(222.900391 0)"/>
      <use xlink:href="#DejaVuSans-68" transform="translate(286.376953 0)"/>
      <use xlink:href="#DejaVuSans-61" transform="translate(349.755859 0)"/>
      <use xlink:href="#DejaVuSans-73" transform="translate(411.035156 0)"/>
      <use xlink:href="#DejaVuSans-65" transform="translate(463.134766 0)"/>
      <use xlink:href="#DejaVuSans-20" transform="translate(524.658203 0)"/>
      <use xlink:href="#DejaVuSans-69" transform="translate(556.445312 0)"/>
      <use xlink:href="#DejaVuSans-6e" transform="translate(584.228516 0)"/>
      <use xlink:href="#DejaVuSans-66" transform="translate(647.607422 0)"/>
      <use xlink:href="#DejaVuSans-6c" transform="translate(682.8125 0)"/>
      <use xlink:href="#DejaVuSans-6f" transform="translate(710.595703 0)"/>
      <use xlink:href="#DejaVuSans-77" transform="translate(771.777344 0)"/>
      <use xlink:href="#DejaVuSans-20" transform="translate(853.564453 0)"/>
      <use xlink:href="#DejaVuSans-28" transform="translate(885.351562 0)"/>
      <use xlink:href="#DejaVuSans-6d" transform="translate(924.365234 0)"/>
      <use xlink:href="#DejaVuSans-66" transform="translate(1021.777344 0)"/>
      <use xlink:href="#DejaVuSans-67" transform="translate(1056.982422 0)"/>
      <use xlink:href="#DejaVuSans-29" transform="translate(1120.458984 0)"/>
      <use xlink:href="#DejaVuSans-20" transform="translate(1159.472656 0)"/>
      <use xlink:href="#DejaVuSans-48" transform="translate(1191.259766 0)"/>
      <use xlink:href="#DejaVuSans-69" transform="translate(1266.455078 0)"/>
      <use xlink:href="#DejaVuSans-67" transform="translate(1294.238281 0)"/>
      <use xlink:href="#DejaVuSans-68" transform="translate(1357.714844 0)"/>
      <use xlink:href="#DejaVuSans-20" transform="translate(1421.09375 0)"/>
      <use xlink:href="#DejaVuSans-53" transform="translate(1452.880859 0)"/>
      <use xlink:href="#DejaVuSans-75" transform="translate(1516.357422 0)"/>
      <use xlink:href="#DejaVuSans-70" transform="translate(1579.736328 0)"/>
      <use xlink:href="#DejaVuSans-70" transform="translate(1643.212891 0)"/>
      <use xlink:href="#DejaVuSans-6c" transform="translate(1706.689453 0)"/>
      <use xlink:href="#DejaVuSans-79" transform="translate(1734.472656 0)"/>
     </g>
    </g>
   </g>
  </g>
  <g id="axes_2">
   <g id="matplotlib.axis_3">
    <g id="ytick_6">
     <g id="line2d_27">
      <defs>
       <path id="mcb0abed633" d="M 0 0 
L 3.5 0 
" style="stroke: #000000; stroke-width: 0.8"/>
      </defs>
      <g>
       <use xlink:href="#mcb0abed633" x="350.566" y="167.116364" style="stroke: #000000; stroke-width: 0.8"/>
      </g>
     </g>
     <g id="text_18">
      <!-- 0 -->
      <g style="fill: #1bb89a" transform="translate(357.566 170.915582) scale(0.1 -0.1)">
       <use xlink:href="#DejaVuSans-30"/>
      </g>
     </g>
    </g>
    <g id="ytick_7">
     <g id="line2d_28">
      <g>
       <use xlink:href="#mcb0abed633" x="350.566" y="130.19112" style="stroke: #000000; stroke-width: 0.8"/>
      </g>
     </g>
     <g id="text_19">
      <!-- 50000 -->
      <g style="fill: #1bb89a" transform="translate(357.566 133.990339) scale(0.1 -0.1)">
       <use xlink:href="#DejaVuSans-35"/>
       <use xlink:href="#DejaVuSans-30" transform="translate(63.623047 0)"/>
       <use xlink:href="#DejaVuSans-30" transform="translate(127.246094 0)"/>
       <use xlink:href="#DejaVuSans-30" transform="translate(190.869141 0)"/>
       <use xlink:href="#DejaVuSans-30" transform="translate(254.492188 0)"/>
      </g>
     </g>
    </g>
    <g id="ytick_8">
     <g id="line2d_29">
      <g>
       <use xlink:href="#mcb0abed633" x="350.566" y="93.265876" style="stroke: #000000; stroke-width: 0.8"/>
      </g>
     </g>
     <g id="text_20">
      <!-- 100000 -->
      <g style="fill: #1bb89a" transform="translate(357.566 97.065095) scale(0.1 -0.1)">
       <use xlink:href="#DejaVuSans-31"/>
       <use xlink:href="#DejaVuSans-30" transform="translate(63.623047 0)"/>
       <use xlink:href="#DejaVuSans-30" transform="translate(127.246094 0)"/>
       <use xlink:href="#DejaVuSans-30" transform="translate(190.869141 0)"/>
       <use xlink:href="#DejaVuSans-30" transform="translate(254.492188 0)"/>
       <use xlink:href="#DejaVuSans-30" transform="translate(318.115234 0)"/>
      </g>
     </g>
    </g>
    <g id="ytick_9">
     <g id="line2d_30">
      <g>
       <use xlink:href="#mcb0abed633" x="350.566" y="56.340632" style="stroke: #000000; stroke-width: 0.8"/>
      </g>
     </g>
     <g id="text_21">
      <!-- 150000 -->
      <g style="fill: #1bb89a" transform="translate(357.566 60.139851) scale(0.1 -0.1)">
       <use xlink:href="#DejaVuSans-31"/>
       <use xlink:href="#DejaVuSans-35" transform="translate(63.623047 0)"/>
       <use xlink:href="#DejaVuSans-30" transform="translate(127.246094 0)"/>
       <use xlink:href="#DejaVuSans-30" transform="translate(190.869141 0)"/>
       <use xlink:href="#DejaVuSans-30" transform="translate(254.492188 0)"/>
       <use xlink:href="#DejaVuSans-30" transform="translate(318.115234 0)"/>
      </g>
     </g>
    </g>
    <g id="text_22">
     <!-- Use-phase inflow -->
     <g style="fill: #1bb89a" transform="translate(407.339437 140.557344) rotate(-90) scale(0.1 -0.1)">
      <use xlink:href="#DejaVuSans-55"/>
      <use xlink:href="#DejaVuSans-73" transform="translate(73.193359 0)"/>
      <use xlink:href="#DejaVuSans-65" transform="translate(125.292969 0)"/>
      <use xlink:href="#DejaVuSans-2d" transform="translate(186.816406 0)"/>
      <use xlink:href="#DejaVuSans-70" transform="translate(222.900391 0)"/>
      <use xlink:href="#DejaVuSans-68" transform="translate(286.376953 0)"/>
      <use xlink:href="#DejaVuSans-61" transform="translate(349.755859 0)"/>
      <use xlink:href="#DejaVuSans-73" transform="translate(411.035156 0)"/>
      <use xlink:href="#DejaVuSans-65" transform="translate(463.134766 0)"/>
      <use xlink:href="#DejaVuSans-20" transform="translate(524.658203 0)"/>
      <use xlink:href="#DejaVuSans-69" transform="translate(556.445312 0)"/>
      <use xlink:href="#DejaVuSans-6e" transform="translate(584.228516 0)"/>
      <use xlink:href="#DejaVuSans-66" transform="translate(647.607422 0)"/>
      <use xlink:href="#DejaVuSans-6c" transform="translate(682.8125 0)"/>
      <use xlink:href="#DejaVuSans-6f" transform="translate(710.595703 0)"/>
      <use xlink:href="#DejaVuSans-77" transform="translate(771.777344 0)"/>
     </g>
     <!-- from Manufacturing (mfg) [kg Ga] -->
     <g style="fill: #1bb89a" transform="translate(418.53725 182.690156) rotate(-90) scale(0.1 -0.1)">
      <defs>
       <path id="DejaVuSans-63" d="M 3122 3366 
L 3122 2828 
Q 2878 2963 2633 3030 
Q 2388 3097 2138 3097 
Q 1578 3097 1268 2742 
Q 959 2388 959 1747 
Q 959 1106 1268 751 
Q 1578 397 2138 397 
Q 2388 397 2633 464 
Q 2878 531 3122 666 
L 3122 134 
Q 2881 22 2623 -34 
Q 2366 -91 2075 -91 
Q 1284 -91 818 406 
Q 353 903 353 1747 
Q 353 2603 823 3093 
Q 1294 3584 2113 3584 
Q 2378 3584 2631 3529 
Q 2884 3475 3122 3366 
z
" transform="scale(0.015625)"/>
       <path id="DejaVuSans-74" d="M 1172 4494 
L 1172 3500 
L 2356 3500 
L 2356 3053 
L 1172 3053 
L 1172 1153 
Q 1172 725 1289 603 
Q 1406 481 1766 481 
L 2356 481 
L 2356 0 
L 1766 0 
Q 1100 0 847 248 
Q 594 497 594 1153 
L 594 3053 
L 172 3053 
L 172 3500 
L 594 3500 
L 594 4494 
L 1172 4494 
z
" transform="scale(0.015625)"/>
      </defs>
      <use xlink:href="#DejaVuSans-66"/>
      <use xlink:href="#DejaVuSans-72" transform="translate(35.205078 0)"/>
      <use xlink:href="#DejaVuSans-6f" transform="translate(74.068359 0)"/>
      <use xlink:href="#DejaVuSans-6d" transform="translate(135.25 0)"/>
      <use xlink:href="#DejaVuSans-20" transform="translate(232.662109 0)"/>
      <use xlink:href="#DejaVuSans-4d" transform="translate(264.449219 0)"/>
      <use xlink:href="#DejaVuSans-61" transform="translate(350.728516 0)"/>
      <use xlink:href="#DejaVuSans-6e" transform="translate(412.007812 0)"/>
      <use xlink:href="#DejaVuSans-75" transform="translate(475.386719 0)"/>
      <use xlink:href="#DejaVuSans-66" transform="translate(538.765625 0)"/>
      <use xlink:href="#DejaVuSans-61" transform="translate(573.970703 0)"/>
      <use xlink:href="#DejaVuSans-63" transform="translate(635.25 0)"/>
      <use xlink:href="#DejaVuSans-74" transform="translate(690.230469 0)"/>
      <use xlink:href="#DejaVuSans-75" transform="translate(729.439453 0)"/>
      <use xlink:href="#DejaVuSans-72" transform="translate(792.818359 0)"/>
      <use xlink:href="#DejaVuSans-69" transform="translate(833.931641 0)"/>
      <use xlink:href="#DejaVuSans-6e" transform="translate(861.714844 0)"/>
      <use xlink:href="#DejaVuSans-67" transform="translate(925.09375 0)"/>
      <use xlink:href="#DejaVuSans-20" transform="translate(988.570312 0)"/>
      <use xlink:href="#DejaVuSans-28" transform="translate(1020.357422 0)"/>
      <use xlink:href="#DejaVuSans-6d" transform="translate(1059.371094 0)"/>
      <use xlink:href="#DejaVuSans-66" transform="translate(1156.783203 0)"/>
      <use xlink:href="#DejaVuSans-67" transform="translate(1191.988281 0)"/>
      <use xlink:href="#DejaVuSans-29" transform="translate(1255.464844 0)"/>
      <use xlink:href="#DejaVuSans-20" transform="translate(1294.478516 0)"/>
      <use xlink:href="#DejaVuSans-5b" transform="translate(1326.265625 0)"/>
      <use xlink:href="#DejaVuSans-6b" transform="translate(1365.279297 0)"/>
      <use xlink:href="#DejaVuSans-67" transform="translate(1423.189453 0)"/>
      <use xlink:href="#DejaVuSans-20" transform="translate(1486.666016 0)"/>
      <use xlink:href="#DejaVuSans-47" transform="translate(1518.453125 0)"/>
      <use xlink:href="#DejaVuSans-61" transform="translate(1595.943359 0)"/>
      <use xlink:href="#DejaVuSans-5d" transform="translate(1657.222656 0)"/>
     </g>
    </g>
   </g>
   <g id="line2d_31">
    <path d="M 52.465273 167.116364 
L 59.067725 167.116364 
L 65.670178 167.116364 
L 72.27263 167.116364 
L 78.875082 167.116364 
L 85.477535 167.116364 
L 92.079987 167.116364 
L 98.68244 167.116364 
L 105.284892 167.116364 
L 111.887345 167.116364 
L 118.489797 167.116364 
L 125.092249 167.116364 
L 131.694702 167.116364 
L 138.297154 167.116364 
L 144.899607 167.116364 
L 151.502059 167.116364 
L 158.104512 167.116364 
L 164.706964 167.116364 
L 171.309416 167.116364 
L 177.911869 167.116364 
L 184.514321 167.116364 
L 191.116774 167.116364 
L 197.719226 167.116364 
L 204.321679 167.116364 
L 210.924131 167.116364 
L 217.526584 167.116364 
L 224.129036 167.116364 
L 230.731488 167.116364 
L 237.333941 167.116364 
L 243.936393 167.116364 
L 250.538846 167.116364 
L 257.141298 167.116364 
L 263.743751 167.116364 
L 270.346203 167.116364 
L 276.948655 167.116364 
L 283.551108 167.116364 
L 290.15356 167.116364 
L 296.756013 167.116364 
L 303.358465 167.116364 
L 309.960918 167.116364 
L 316.56337 167.116364 
L 323.165822 167.116364 
L 329.768275 167.116364 
L 336.370727 167.116364 
" clip-path="url(#pee14387d4f)" style="fill: none; stroke: #1bb89a; stroke-width: 2; stroke-linecap: square"/>
   </g>
   <g id="line2d_32">
    <path d="M 52.465273 167.116364 
L 59.067725 167.116364 
L 65.670178 167.116364 
L 72.27263 167.116364 
L 78.875082 167.116364 
L 85.477535 167.116364 
L 92.079987 167.116364 
L 98.68244 167.116364 
L 105.284892 167.116364 
L 111.887345 167.116364 
L 118.489797 167.116364 
L 125.092249 167.116364 
L 131.694702 167.116364 
L 138.297154 167.116364 
L 144.899607 167.116364 
L 151.502059 167.116364 
L 158.104512 167.116364 
L 164.706964 167.116364 
L 171.309416 167.116364 
L 177.911869 162.204024 
L 184.514321 157.379789 
L 191.116774 150.87829 
L 197.719226 145.699986 
L 204.321679 142.320719 
L 210.924131 139.846242 
L 217.526584 137.605512 
L 224.129036 134.872866 
L 230.731488 132.014452 
L 237.333941 128.888832 
L 243.936393 125.449492 
L 250.538846 121.738221 
L 257.141298 117.669864 
L 263.743751 113.24645 
L 270.346203 108.424726 
L 276.948655 103.16752 
L 283.551108 97.441186 
L 290.15356 91.198622 
L 296.756013 84.396239 
L 303.358465 76.982722 
L 309.960918 68.903042 
L 316.56337 60.097727 
L 323.165822 50.501123 
L 329.768275 40.042302 
L 336.370727 28.643636 
" clip-path="url(#pee14387d4f)" style="fill: none; stroke-dasharray: 7.4,3.2; stroke-dashoffset: 0; stroke: #1bb89a; stroke-width: 2"/>
   </g>
   <g id="patch_8">
    <path d="M 38.27 174.04 
L 38.27 21.72 
" style="fill: none; stroke: #000000; stroke-width: 0.8; stroke-linejoin: miter; stroke-linecap: square"/>
   </g>
   <g id="patch_9">
    <path d="M 350.566 174.04 
L 350.566 21.72 
" style="fill: none; stroke: #000000; stroke-width: 0.8; stroke-linejoin: miter; stroke-linecap: square"/>
   </g>
   <g id="patch_10">
    <path d="M 38.27 174.04 
L 350.566 174.04 
" style="fill: none; stroke: #000000; stroke-width: 0.8; stroke-linejoin: miter; stroke-linecap: square"/>
   </g>
   <g id="patch_11">
    <path d="M 38.27 21.72 
L 350.566 21.72 
" style="fill: none; stroke: #000000; stroke-width: 0.8; stroke-linejoin: miter; stroke-linecap: square"/>
   </g>
  </g>
 </g>
 <defs>
  <clipPath id="pee14387d4f">
   <rect x="38.27" y="21.72" width="312.296" height="152.32"/>
  </clipPath>
 </defs>
</svg>
